<?xml version="1.0" encoding="UTF-8" standalone="no"?>
<!DOCTYPE svg PUBLIC "-//W3C//DTD SVG 1.1//EN" "http://www.w3.org/Graphics/SVG/1.1/DTD/svg11.dtd">
<svg width="100%" height="100%" viewBox="0 0 30 23" version="1.1" xmlns="http://www.w3.org/2000/svg" xmlns:xlink="http://www.w3.org/1999/xlink" xml:space="preserve" xmlns:serif="http://www.serif.com/" style="fill-rule:evenodd;clip-rule:evenodd;stroke-linecap:round;stroke-linejoin:round;stroke-miterlimit:1.5;">
    <g transform="matrix(0.0394651,0,0,0.0394651,6.69099,-26.4378)">
        <g transform="matrix(1,0,0,1,-382.848,93.8271)">
            <path d="M287.041,800.981L425.197,817.328L496.908,731.543L713.563,771.201L771.468,823.208L900.145,806.051L830.445,739.568L795.595,729.381C795.595,729.381 770.594,719.154 763.572,712.537C757.587,706.898 760.85,695.785 753.463,689.681C746.545,683.964 728.759,670.772 728.759,670.772L700.696,630.192L660.484,667.187L568.802,576.577L508.801,641.345L474.487,625.904L419.242,704.483L401.741,706.885L374.195,747.535L338.852,762.29L315.175,773.956" style="fill:rgb(4,5,9);stroke:black;stroke-width:1px;"/>
        </g>
        <g transform="matrix(1,0,0,1,-382.848,91.3139)">
            <path d="M428.504,706.517L461.696,708.76L463.068,685.769L487.774,685.769L488.804,675.475C488.804,675.475 491.108,674.368 491.753,673.029C492.497,671.484 493.264,666.211 493.264,666.211L506.647,666.897L505.117,649.777L476.769,636.268L428.504,706.517Z" style="fill:white;stroke:white;stroke-width:1px;"/>
        </g>
        <g transform="matrix(1,0,0,1,-382.01,95.5026)">
            <path d="M569.276,586.518L652.142,668.475L592.155,707.792L588.805,665.905L559.484,645.799L568.699,629.044L569.276,586.518Z" style="fill:white;stroke:white;stroke-width:1px;"/>
        </g>
        <g transform="matrix(1,0,0,1,-382.848,90.4761)">
            <path d="M677.605,695.226L685.145,681.822L690.171,660.041L699.907,643.949C699.907,643.949 714.466,666.743 723.681,677.633C732.896,688.524 750.489,696.901 753.002,707.792C755.515,718.683 755.515,718.683 761.379,722.871C767.244,727.06 784.462,734.382 784.462,734.382L745.462,740.464L711.953,719.52L692.685,730.411L683.469,726.222L687.658,711.981L677.605,695.226Z" style="fill:white;stroke:white;stroke-width:1px;"/>
        </g>
    </g>
    <g transform="matrix(0.0394651,0,0,0.0394651,-8.35204,-22.7349)">
        <path d="M688.812,921.767L783.683,921.328L899.592,814.2L769.144,834.843L704.474,778.652L506.255,742.554" style="fill:rgb(49,67,110);stroke:rgb(49,67,110);stroke-width:1px;"/>
    </g>
    <g transform="matrix(0.0394651,0,0,0.0394651,-8.35204,-22.7349)">
        <path d="M506.146,742.968L688.603,921.505" style="fill:none;stroke:rgb(49,67,110);stroke-width:1px;"/>
    </g>
    <g transform="matrix(0.0394651,0,0,0.0394651,-8.35204,-22.7349)">
        <path d="M865.007,864.008L908.737,822.288L965.034,896.68L906.727,845.913L865.007,864.008Z" style="fill:rgb(49,67,110);stroke:rgb(49,67,110);stroke-width:1px;"/>
    </g>
    <g transform="matrix(-0.0394651,0,0,0.0394651,38.3482,-22.9287)">
        <path d="M865.007,864.008L908.737,822.288L965.034,896.68L906.727,845.913L865.007,864.008Z" style="fill:rgb(49,67,110);stroke:rgb(49,67,110);stroke-width:1px;"/>
    </g>
    <g transform="matrix(0.0394651,0,0,0.0394651,-8.35204,-22.7349)">
        <path d="M282.07,807.927L428.042,827.211L497.365,745.739L571.14,822.602L491.532,782.111L375.207,905.299L282.07,807.927Z" style="fill:rgb(49,67,110);stroke:rgb(49,67,110);stroke-width:1px;"/>
    </g>
    <g transform="matrix(0.0394651,0,0,0.0394651,-8.35204,-22.7349)">
        <rect x="211.631" y="938.5" width="754.951" height="16.689" style="fill:rgb(49,67,110);"/>
    </g>
    <g transform="matrix(0.0394651,0,0,0.0394651,-8.5099,-22.4981)">
        <g>
            <path d="M283.183,893.171C283.217,897.62 283.251,902.069 283.285,906.518L270.531,906.518C270.5,902.293 270.469,898.068 270.438,893.843C274.686,893.619 278.934,893.395 283.183,893.171Z"/>
            <g transform="matrix(1,0,0,1,17.2621,0)">
                <path d="M283.169,892.262C283.208,897.014 283.247,901.766 283.285,906.518L270.531,906.518C270.495,901.99 270.46,897.462 270.424,892.934C274.672,892.71 278.921,892.486 283.169,892.262Z"/>
            </g>
            <g transform="matrix(1,0,0,1,0,-17.4985)">
                <path d="M283.043,892.51C283.077,896.959 283.111,901.408 283.145,905.856C278.898,906.161 274.651,906.466 270.404,906.771C270.373,902.546 270.342,898.321 270.311,894.097C274.555,893.568 278.799,893.039 283.043,892.51Z"/>
            </g>
            <g transform="matrix(1,0,0,1,17.2621,-17.4985)">
                <path d="M283.011,890.363C283.05,895.115 283.088,899.867 283.127,904.619C278.88,904.924 274.633,905.229 270.386,905.533C270.35,901.005 270.315,896.477 270.279,891.95C274.523,891.421 278.767,890.892 283.011,890.363Z"/>
            </g>
        </g>
    </g>
    <g transform="matrix(0.0394651,0,0,0.0394651,-8.35204,-22.7349)">
        <g>
            <g transform="matrix(1.43912,0,0,1.58794,86.3326,-528.99)">
                <path d="M283.706,892.628C283.735,897.258 283.763,901.888 283.792,906.518L270.531,906.518L270.531,893.017C274.922,892.887 279.314,892.757 283.706,892.628Z"/>
            </g>
            <g transform="matrix(1.43912,0,0,1.58794,111.175,-528.99)">
                <path d="M284.276,892.101C284.343,896.907 284.41,901.712 284.478,906.518L271.216,906.518C271.177,901.842 271.139,897.166 271.1,892.49C275.492,892.36 279.884,892.231 284.276,892.101Z"/>
            </g>
            <g transform="matrix(1.43912,0,0,1.58794,86.3326,-556.776)">
                <path d="M283.589,891.226C283.618,895.857 283.647,900.487 283.675,905.117C279.294,905.293 274.912,905.469 270.531,905.646L270.531,892.145C274.883,891.839 279.236,891.533 283.589,891.226Z"/>
            </g>
            <g transform="matrix(1.43912,0,0,1.58794,111.175,-556.776)">
                <path d="M284.001,889.984C284.068,894.789 284.135,899.595 284.203,904.4C279.821,904.577 275.44,904.753 271.058,904.93C271.019,900.254 270.981,895.578 270.942,890.902C275.295,890.596 279.648,890.29 284.001,889.984Z"/>
            </g>
        </g>
    </g>
    <g transform="matrix(0.0394651,0,0,0.0394651,-8.15471,-22.7349)">
        <g>
            <g transform="matrix(1,0,0,1,611.444,14.0741)">
                <path d="M283.285,893.055L283.285,906.518L270.531,906.518L270.531,892.611C274.782,892.759 279.034,892.907 283.285,893.055Z"/>
            </g>
            <g transform="matrix(1,0,0,1,628.706,14.0741)">
                <path d="M283.285,893.657L283.285,906.518L270.531,906.518L270.531,893.213C274.782,893.361 279.034,893.509 283.285,893.657Z"/>
            </g>
            <g transform="matrix(1,0,0,1,611.444,-3.42439)">
                <path d="M283.285,892.237L283.285,905.699C279.034,905.497 274.782,905.295 270.531,905.094L270.531,891.187C274.782,891.537 279.034,891.887 283.285,892.237Z"/>
            </g>
            <g transform="matrix(1,0,0,1,628.706,-3.42439)">
                <path d="M283.285,893.657L283.285,906.518C279.034,906.316 274.782,906.114 270.531,905.913L270.531,892.608C274.782,892.957 279.034,893.307 283.285,893.657Z"/>
            </g>
        </g>
    </g>
    <g transform="matrix(0.0394651,0,0,0.0394651,-8.39078,-22.8124)">
        <path d="M263.966,1016.51C262.1,1014.24 260.05,1012.61 257.816,1011.61C255.583,1010.61 252.966,1010.11 249.966,1010.11C246.1,1010.11 243.083,1010.86 240.916,1012.36C238.75,1013.86 237.666,1015.67 237.666,1017.81C237.666,1019.14 238.15,1020.32 239.116,1021.36C240.083,1022.39 241.333,1023.32 242.866,1024.16C244.4,1024.99 246.066,1025.77 247.866,1026.51C249.666,1027.24 251.433,1027.91 253.166,1028.51L253.066,1028.51C255,1029.17 257.183,1030.04 259.616,1031.11C262.05,1032.17 264.35,1033.54 266.516,1035.21C268.683,1036.87 270.516,1038.87 272.016,1041.21C273.516,1043.54 274.266,1046.31 274.266,1049.51C274.266,1052.84 273.633,1055.79 272.366,1058.36C271.1,1060.92 269.333,1063.07 267.066,1064.81C264.8,1066.54 262.15,1067.86 259.116,1068.76C256.083,1069.66 252.8,1070.11 249.266,1070.11C244.266,1070.11 239.6,1069.04 235.266,1066.91C230.933,1064.77 226.666,1061.37 222.466,1056.71L231.266,1049.51C233.666,1052.84 236.383,1055.27 239.416,1056.81C242.45,1058.34 245.766,1059.11 249.366,1059.11C251.433,1059.11 253.316,1058.91 255.016,1058.51C256.716,1058.11 258.183,1057.54 259.416,1056.81C260.65,1056.07 261.616,1055.21 262.316,1054.21C263.016,1053.21 263.366,1052.11 263.366,1050.91C263.366,1049.24 262.866,1047.77 261.866,1046.51C260.866,1045.24 259.6,1044.12 258.066,1043.16C256.533,1042.19 254.8,1041.36 252.866,1040.66C250.933,1039.96 249.066,1039.31 247.266,1038.71L244.866,1037.81C242.6,1037.01 240.383,1036.16 238.216,1035.26C236.05,1034.36 234.1,1033.19 232.366,1031.76C230.633,1030.32 229.233,1028.54 228.166,1026.41C227.1,1024.27 226.566,1021.64 226.566,1018.51C226.566,1016.04 227,1013.64 227.866,1011.31C228.733,1008.97 230.1,1006.92 231.966,1005.16C233.833,1003.39 236.233,1001.97 239.166,1000.91C242.1,999.841 245.633,999.307 249.766,999.307C252.166,999.307 254.466,999.507 256.666,999.907C258.866,1000.31 261,1000.99 263.066,1001.96C265.133,1002.92 267.15,1004.19 269.116,1005.76C271.083,1007.32 273.033,1009.27 274.966,1011.61L265.666,1019.01L263.966,1016.51Z" style="fill-rule:nonzero;"/>
        <path d="M358.166,1034.31C358.166,1031.04 357.716,1027.91 356.816,1024.91C355.916,1021.91 354.55,1019.26 352.716,1016.96C350.883,1014.66 348.6,1012.84 345.866,1011.51C343.133,1010.17 339.933,1009.51 336.266,1009.51C332.666,1009.51 329.5,1010.17 326.766,1011.51C324.033,1012.84 321.766,1014.64 319.966,1016.91C318.166,1019.17 316.8,1021.81 315.866,1024.81C314.933,1027.81 314.466,1030.97 314.466,1034.31C314.466,1037.64 314.933,1040.81 315.866,1043.81C316.8,1046.81 318.166,1049.46 319.966,1051.76C321.766,1054.06 324.033,1055.89 326.766,1057.26C329.5,1058.62 332.666,1059.31 336.266,1059.31C339.933,1059.31 343.133,1058.64 345.866,1057.31C348.6,1055.97 350.883,1054.16 352.716,1051.86C354.55,1049.56 355.916,1046.91 356.816,1043.91C357.716,1040.91 358.166,1037.71 358.166,1034.31ZM369.066,1034.21C369.066,1038.87 368.383,1043.37 367.016,1047.71C365.65,1052.04 363.583,1055.86 360.816,1059.16C358.05,1062.46 354.616,1065.11 350.516,1067.11C346.416,1069.11 341.666,1070.11 336.266,1070.11C330.866,1070.11 326.133,1069.11 322.066,1067.11C318,1065.11 314.583,1062.46 311.816,1059.16C309.05,1055.86 306.983,1052.04 305.616,1047.71C304.25,1043.37 303.566,1038.87 303.566,1034.21C303.566,1029.61 304.25,1025.16 305.616,1020.86C306.983,1016.56 309.05,1012.77 311.816,1009.51C314.583,1006.24 318,1003.62 322.066,1001.66C326.133,999.691 330.866,998.707 336.266,998.707C341.666,998.707 346.416,999.691 350.516,1001.66C354.616,1003.62 358.05,1006.24 360.816,1009.51C363.583,1012.77 365.65,1016.56 367.016,1020.86C368.383,1025.16 369.066,1029.61 369.066,1034.21Z" style="fill-rule:nonzero;"/>
        <path d="M425.966,1070.31C424.233,1070.31 422.633,1070.21 421.166,1070.01C417.9,1069.54 414.866,1068.67 412.066,1067.41C409.266,1066.14 406.816,1064.49 404.716,1062.46C402.616,1060.42 400.95,1058.02 399.716,1055.26C398.483,1052.49 397.8,1049.41 397.666,1046.01L397.666,999.607L408.466,999.607L408.466,1044.91C408.466,1047.31 408.883,1049.37 409.716,1051.11C410.55,1052.84 411.666,1054.29 413.066,1055.46C414.466,1056.62 416.1,1057.52 417.966,1058.16C419.833,1058.79 421.833,1059.21 423.966,1059.41C424.3,1059.47 424.55,1059.51 424.716,1059.51L427.316,1059.51C427.483,1059.51 427.733,1059.47 428.066,1059.41C430.2,1059.21 432.216,1058.79 434.116,1058.16C436.016,1057.52 437.666,1056.62 439.066,1055.46C440.466,1054.29 441.583,1052.84 442.416,1051.11C443.25,1049.37 443.666,1047.31 443.666,1044.91L443.666,999.607L454.466,999.607L454.466,1046.01C454.333,1049.41 453.65,1052.49 452.416,1055.26C451.183,1058.02 449.516,1060.44 447.416,1062.51C445.316,1064.57 442.85,1066.24 440.016,1067.51C437.183,1068.77 434.1,1069.61 430.766,1070.01L427.266,1070.31L425.966,1070.31Z" style="fill-rule:nonzero;"/>
        <path d="M510.466,1010.41L510.466,1069.61L499.666,1069.61L499.666,1010.41L483.066,1010.41L483.066,999.607L526.766,999.607L526.766,1010.41L510.466,1010.41Z" style="fill-rule:nonzero;"/>
        <path d="M595.066,1069.61L595.066,1038.71L566.166,1038.71L566.166,1069.61L555.366,1069.61L555.366,999.607L566.166,999.607L566.166,1027.91L595.066,1027.91L595.066,999.607L605.866,999.607L605.866,1069.61L595.066,1069.61Z" style="fill-rule:nonzero;"/>
        <path d="M701.266,1069.61L691.066,1069.61L678.066,1022.61L664.566,1069.61L654.066,1069.61L634.466,999.607L646.166,999.607L659.466,1046.51L672.566,999.607L683.166,999.607L696.166,1046.51L709.266,999.607L720.866,999.607L701.266,1069.61Z" style="fill-rule:nonzero;"/>
        <path d="M749.466,1069.61L749.466,999.607L792.666,999.607L792.666,1010.41L760.266,1010.41L760.266,1027.91L789.766,1027.91L789.766,1038.71L760.266,1038.71L760.266,1058.81L792.966,1058.81L792.966,1069.61L749.466,1069.61Z" style="fill-rule:nonzero;"/>
        <path d="M863.066,1016.51C861.2,1014.24 859.15,1012.61 856.916,1011.61C854.683,1010.61 852.066,1010.11 849.066,1010.11C845.2,1010.11 842.183,1010.86 840.016,1012.36C837.85,1013.86 836.766,1015.67 836.766,1017.81C836.766,1019.14 837.25,1020.32 838.216,1021.36C839.183,1022.39 840.433,1023.32 841.966,1024.16C843.5,1024.99 845.166,1025.77 846.966,1026.51C848.766,1027.24 850.533,1027.91 852.266,1028.51L852.166,1028.51C854.1,1029.17 856.283,1030.04 858.716,1031.11C861.15,1032.17 863.45,1033.54 865.616,1035.21C867.783,1036.87 869.616,1038.87 871.116,1041.21C872.616,1043.54 873.366,1046.31 873.366,1049.51C873.366,1052.84 872.733,1055.79 871.466,1058.36C870.2,1060.92 868.433,1063.07 866.166,1064.81C863.9,1066.54 861.25,1067.86 858.216,1068.76C855.183,1069.66 851.9,1070.11 848.366,1070.11C843.366,1070.11 838.7,1069.04 834.366,1066.91C830.033,1064.77 825.766,1061.37 821.566,1056.71L830.366,1049.51C832.766,1052.84 835.483,1055.27 838.516,1056.81C841.55,1058.34 844.866,1059.11 848.466,1059.11C850.533,1059.11 852.416,1058.91 854.116,1058.51C855.816,1058.11 857.283,1057.54 858.516,1056.81C859.75,1056.07 860.716,1055.21 861.416,1054.21C862.116,1053.21 862.466,1052.11 862.466,1050.91C862.466,1049.24 861.966,1047.77 860.966,1046.51C859.966,1045.24 858.7,1044.12 857.166,1043.16C855.633,1042.19 853.9,1041.36 851.966,1040.66C850.033,1039.96 848.166,1039.31 846.366,1038.71L843.966,1037.81C841.7,1037.01 839.483,1036.16 837.316,1035.26C835.15,1034.36 833.2,1033.19 831.466,1031.76C829.733,1030.32 828.333,1028.54 827.266,1026.41C826.2,1024.27 825.666,1021.64 825.666,1018.51C825.666,1016.04 826.1,1013.64 826.966,1011.31C827.833,1008.97 829.2,1006.92 831.066,1005.16C832.933,1003.39 835.333,1001.97 838.266,1000.91C841.2,999.841 844.733,999.307 848.866,999.307C851.266,999.307 853.566,999.507 855.766,999.907C857.966,1000.31 860.1,1000.99 862.166,1001.96C864.233,1002.92 866.25,1004.19 868.216,1005.76C870.183,1007.32 872.133,1009.27 874.066,1011.61L864.766,1019.01L863.066,1016.51Z" style="fill-rule:nonzero;"/>
        <path d="M930.066,1010.41L930.066,1069.61L919.266,1069.61L919.266,1010.41L902.666,1010.41L902.666,999.607L946.366,999.607L946.366,1010.41L930.066,1010.41Z" style="fill-rule:nonzero;"/>
    </g>
    <g transform="matrix(0.042187,0,0,0.0394651,-8.79711,-22.8512)">
        <path d="M249.622,1148.35L249.622,1125.18L226.695,1125.18L226.695,1148.35L221.792,1148.35L221.792,1098.76L226.695,1098.76L226.695,1119.94L249.622,1119.94L249.622,1098.76L254.526,1098.76L254.526,1148.35L249.622,1148.35Z" style="fill:rgb(49,67,110);fill-rule:nonzero;stroke:rgb(49,67,110);stroke-width:0.97px;stroke-linecap:butt;stroke-miterlimit:2;"/>
        <path d="M306.145,1123.34C306.145,1120.65 305.791,1118.1 305.085,1115.69C304.378,1113.28 303.329,1111.17 301.937,1109.35C300.546,1107.53 298.812,1106.08 296.735,1105C294.659,1103.91 292.23,1103.37 289.447,1103.37C286.708,1103.37 284.311,1103.9 282.257,1104.96C280.203,1106.02 278.48,1107.46 277.088,1109.28C275.697,1111.1 274.648,1113.22 273.941,1115.66C273.234,1118.09 272.881,1120.65 272.881,1123.34C272.881,1126.03 273.234,1128.6 273.941,1131.03C274.648,1133.46 275.697,1135.6 277.088,1137.44C278.48,1139.28 280.203,1140.74 282.257,1141.83C284.311,1142.91 286.708,1143.46 289.447,1143.46C292.23,1143.46 294.659,1142.93 296.735,1141.86C298.812,1140.8 300.546,1139.35 301.937,1137.51C303.329,1135.67 304.378,1133.53 305.085,1131.1C305.791,1128.67 306.145,1126.08 306.145,1123.34ZM311.115,1123.27C311.115,1126.58 310.662,1129.76 309.756,1132.83C308.851,1135.9 307.492,1138.61 305.681,1140.94C303.87,1143.28 301.606,1145.16 298.889,1146.58C296.172,1147.99 293.025,1148.7 289.447,1148.7C285.868,1148.7 282.743,1147.99 280.07,1146.58C277.398,1145.16 275.156,1143.28 273.344,1140.94C271.533,1138.61 270.175,1135.9 269.269,1132.83C268.364,1129.76 267.911,1126.58 267.911,1123.27C267.911,1119.96 268.364,1116.8 269.269,1113.78C270.175,1110.76 271.533,1108.09 273.344,1105.78C275.156,1103.46 277.398,1101.61 280.07,1100.21C282.743,1098.82 285.868,1098.12 289.447,1098.12C293.025,1098.12 296.172,1098.82 298.889,1100.21C301.606,1101.61 303.87,1103.46 305.681,1105.78C307.492,1108.09 308.851,1110.76 309.756,1113.78C310.662,1116.8 311.115,1119.96 311.115,1123.27Z" style="fill:rgb(49,67,110);fill-rule:nonzero;stroke:rgb(49,67,110);stroke-width:0.97px;stroke-linecap:butt;stroke-miterlimit:2;"/>
        <path d="M360.945,1148.35L360.945,1109.1L345.174,1136.59L329.205,1109.67L329.205,1148.35L324.5,1148.35L324.5,1098.76L328.277,1098.76L345.174,1127.59L362.071,1098.76L365.782,1098.76L365.782,1148.35L360.945,1148.35Z" style="fill:rgb(49,67,110);fill-rule:nonzero;stroke:rgb(49,67,110);stroke-width:0.97px;stroke-linecap:butt;stroke-miterlimit:2;"/>
        <path d="M379.167,1148.35L379.167,1098.76L406.799,1098.76L406.799,1104L384.071,1104L384.071,1119.94L404.745,1119.94L404.745,1125.18L384.071,1125.18L384.071,1143.1L406.998,1143.1L406.998,1148.35L379.167,1148.35Z" style="fill:rgb(49,67,110);fill-rule:nonzero;stroke:rgb(49,67,110);stroke-width:0.97px;stroke-linecap:butt;stroke-miterlimit:2;"/>
        <rect x="447.816" y="1098.76" width="4.903" height="49.583" style="fill:rgb(49,67,110);stroke:rgb(49,67,110);stroke-width:0.97px;stroke-linecap:butt;stroke-miterlimit:2;"/>
        <path d="M499.237,1148.35L470.876,1108.18L470.876,1148.35L466.105,1148.35L466.105,1098.76L470.081,1098.76L498.574,1138.92L498.574,1098.76L503.345,1098.76L503.345,1148.35L499.237,1148.35Z" style="fill:rgb(49,67,110);fill-rule:nonzero;stroke:rgb(49,67,110);stroke-width:0.97px;stroke-linecap:butt;stroke-miterlimit:2;"/>
        <path d="M549.862,1148.35L521.501,1108.18L521.501,1148.35L516.73,1148.35L516.73,1098.76L520.706,1098.76L549.199,1138.92L549.199,1098.76L553.97,1098.76L553.97,1148.35L549.862,1148.35Z" style="fill:rgb(49,67,110);fill-rule:nonzero;stroke:rgb(49,67,110);stroke-width:0.97px;stroke-linecap:butt;stroke-miterlimit:2;"/>
        <path d="M605.589,1123.34C605.589,1120.65 605.236,1118.1 604.529,1115.69C603.822,1113.28 602.773,1111.17 601.382,1109.35C599.99,1107.53 598.256,1106.08 596.18,1105C594.104,1103.91 591.674,1103.37 588.891,1103.37C586.152,1103.37 583.756,1103.9 581.701,1104.96C579.647,1106.02 577.924,1107.46 576.533,1109.28C575.141,1111.1 574.092,1113.22 573.385,1115.66C572.679,1118.09 572.325,1120.65 572.325,1123.34C572.325,1126.03 572.679,1128.6 573.385,1131.03C574.092,1133.46 575.141,1135.6 576.533,1137.44C577.924,1139.28 579.647,1140.74 581.701,1141.83C583.756,1142.91 586.152,1143.46 588.891,1143.46C591.674,1143.46 594.104,1142.93 596.18,1141.86C598.256,1140.8 599.99,1139.35 601.382,1137.51C602.773,1135.67 603.822,1133.53 604.529,1131.1C605.236,1128.67 605.589,1126.08 605.589,1123.34ZM610.559,1123.27C610.559,1126.58 610.106,1129.76 609.201,1132.83C608.295,1135.9 606.937,1138.61 605.126,1140.94C603.314,1143.28 601.05,1145.16 598.334,1146.58C595.617,1147.99 592.469,1148.7 588.891,1148.7C585.313,1148.7 582.187,1147.99 579.515,1146.58C576.842,1145.16 574.6,1143.28 572.789,1140.94C570.978,1138.61 569.619,1135.9 568.714,1132.83C567.808,1129.76 567.355,1126.58 567.355,1123.27C567.355,1119.96 567.808,1116.8 568.714,1113.78C569.619,1110.76 570.978,1108.09 572.789,1105.78C574.6,1103.46 576.842,1101.61 579.515,1100.21C582.187,1098.82 585.313,1098.12 588.891,1098.12C592.469,1098.12 595.617,1098.82 598.334,1100.21C601.05,1101.61 603.314,1103.46 605.126,1105.78C606.937,1108.09 608.295,1110.76 609.201,1113.78C610.106,1116.8 610.559,1119.96 610.559,1123.27Z" style="fill:rgb(49,67,110);fill-rule:nonzero;stroke:rgb(49,67,110);stroke-width:0.97px;stroke-linecap:butt;stroke-miterlimit:2;"/>
        <path d="M643.094,1139.78L656.678,1098.76L662.245,1098.76L645.745,1148.35L640.444,1148.35L623.944,1098.76L629.51,1098.76L643.094,1139.78Z" style="fill:rgb(49,67,110);fill-rule:nonzero;stroke:rgb(49,67,110);stroke-width:0.97px;stroke-linecap:butt;stroke-miterlimit:2;"/>
        <path d="M690.804,1133.33L673.576,1133.33L668.606,1148.35L663.04,1148.35L679.539,1098.76L684.84,1098.76L701.34,1148.35L695.774,1148.35L690.804,1133.33ZM675.299,1128.09L689.015,1128.09L682.19,1107.33L675.299,1128.09Z" style="fill:rgb(49,67,110);fill-rule:nonzero;stroke:rgb(49,67,110);stroke-width:0.97px;stroke-linecap:butt;stroke-miterlimit:2;"/>
        <path d="M720.424,1104L720.424,1148.35L715.52,1148.35L715.52,1104L703.858,1104L703.858,1098.76L731.821,1098.76L731.821,1104L720.424,1104Z" style="fill:rgb(49,67,110);fill-rule:nonzero;stroke:rgb(49,67,110);stroke-width:0.97px;stroke-linecap:butt;stroke-miterlimit:2;"/>
        <rect x="745.206" y="1098.76" width="4.903" height="49.583" style="fill:rgb(49,67,110);stroke:rgb(49,67,110);stroke-width:0.97px;stroke-linecap:butt;stroke-miterlimit:2;"/>
        <path d="M801.729,1123.34C801.729,1120.65 801.376,1118.1 800.669,1115.69C799.962,1113.28 798.913,1111.17 797.521,1109.35C796.13,1107.53 794.396,1106.08 792.32,1105C790.243,1103.91 787.814,1103.37 785.031,1103.37C782.292,1103.37 779.895,1103.9 777.841,1104.96C775.787,1106.02 774.064,1107.46 772.673,1109.28C771.281,1111.1 770.232,1113.22 769.525,1115.66C768.818,1118.09 768.465,1120.65 768.465,1123.34C768.465,1126.03 768.818,1128.6 769.525,1131.03C770.232,1133.46 771.281,1135.6 772.673,1137.44C774.064,1139.28 775.787,1140.74 777.841,1141.83C779.895,1142.91 782.292,1143.46 785.031,1143.46C787.814,1143.46 790.243,1142.93 792.32,1141.86C794.396,1140.8 796.13,1139.35 797.521,1137.51C798.913,1135.67 799.962,1133.53 800.669,1131.1C801.376,1128.67 801.729,1126.08 801.729,1123.34ZM806.699,1123.27C806.699,1126.58 806.246,1129.76 805.341,1132.83C804.435,1135.9 803.077,1138.61 801.265,1140.94C799.454,1143.28 797.19,1145.16 794.473,1146.58C791.757,1147.99 788.609,1148.7 785.031,1148.7C781.453,1148.7 778.327,1147.99 775.654,1146.58C772.982,1145.16 770.74,1143.28 768.929,1140.94C767.118,1138.61 765.759,1135.9 764.854,1132.83C763.948,1129.76 763.495,1126.58 763.495,1123.27C763.495,1119.96 763.948,1116.8 764.854,1113.78C765.759,1110.76 767.118,1108.09 768.929,1105.78C770.74,1103.46 772.982,1101.61 775.654,1100.21C778.327,1098.82 781.453,1098.12 785.031,1098.12C788.609,1098.12 791.757,1098.82 794.473,1100.21C797.19,1101.61 799.454,1103.46 801.265,1105.78C803.077,1108.09 804.435,1110.76 805.341,1113.78C806.246,1116.8 806.699,1119.96 806.699,1123.27Z" style="fill:rgb(49,67,110);fill-rule:nonzero;stroke:rgb(49,67,110);stroke-width:0.97px;stroke-linecap:butt;stroke-miterlimit:2;"/>
        <path d="M853.216,1148.35L824.855,1108.18L824.855,1148.35L820.084,1148.35L820.084,1098.76L824.06,1098.76L852.553,1138.92L852.553,1098.76L857.324,1098.76L857.324,1148.35L853.216,1148.35Z" style="fill:rgb(49,67,110);fill-rule:nonzero;stroke:rgb(49,67,110);stroke-width:0.97px;stroke-linecap:butt;stroke-miterlimit:2;"/>
        <path d="M899.07,1109.32C897.657,1107.33 896.066,1105.92 894.299,1105.07C892.532,1104.22 890.456,1103.79 888.07,1103.79C884.934,1103.79 882.493,1104.49 880.748,1105.88C879.003,1107.27 878.131,1108.99 878.131,1111.02C878.131,1112.24 878.495,1113.33 879.224,1114.28C879.953,1115.22 880.892,1116.06 882.04,1116.79C883.189,1117.52 884.459,1118.17 885.851,1118.74C887.242,1119.3 888.578,1119.85 889.86,1120.37C891.096,1120.79 892.521,1121.38 894.134,1122.14C895.746,1122.89 897.27,1123.84 898.706,1124.97C900.141,1126.1 901.345,1127.47 902.317,1129.08C903.289,1130.68 903.775,1132.57 903.775,1134.75C903.775,1137.01 903.366,1139.02 902.549,1140.77C901.732,1142.51 900.594,1143.97 899.136,1145.12C897.679,1146.28 895.956,1147.16 893.968,1147.78C891.98,1148.39 889.837,1148.7 887.54,1148.7C884.227,1148.7 881.201,1148.04 878.462,1146.72C875.723,1145.39 873.139,1143.27 870.709,1140.34L874.685,1136.8C876.231,1139.07 878.087,1140.72 880.251,1141.76C882.416,1142.8 884.89,1143.32 887.673,1143.32C889.307,1143.32 890.798,1143.13 892.146,1142.75C893.493,1142.37 894.653,1141.84 895.624,1141.16C896.596,1140.47 897.358,1139.67 897.911,1138.75C898.463,1137.83 898.739,1136.82 898.739,1135.74C898.739,1134.27 898.363,1132.99 897.612,1131.88C896.861,1130.77 895.912,1129.8 894.763,1128.97C893.614,1128.15 892.311,1127.44 890.853,1126.85C889.396,1126.26 887.982,1125.73 886.613,1125.25C884.978,1124.64 883.355,1124.01 881.742,1123.38C880.13,1122.74 878.672,1121.94 877.369,1120.97C876.066,1120 875.017,1118.77 874.221,1117.29C873.426,1115.8 873.029,1113.87 873.029,1111.51C873.029,1109.81 873.305,1108.18 873.857,1106.62C874.409,1105.07 875.282,1103.68 876.474,1102.48C877.667,1101.28 879.213,1100.32 881.113,1099.61C883.012,1098.9 885.287,1098.55 887.938,1098.55C891.119,1098.55 893.968,1099.09 896.486,1100.18C899.004,1101.27 901.389,1103.25 903.642,1106.13L899.335,1109.74L899.07,1109.32Z" style="fill:rgb(49,67,110);fill-rule:nonzero;stroke:rgb(49,67,110);stroke-width:0.97px;stroke-linecap:butt;stroke-miterlimit:2;"/>
    </g>
</svg>
